<?xml version="1.0" encoding="UTF-8" standalone="no"?>
<!DOCTYPE svg PUBLIC "-//W3C//DTD SVG 1.1//EN" "http://www.w3.org/Graphics/SVG/1.1/DTD/svg11.dtd">
<svg width="100%" height="100%" viewBox="0 0 1280 640" version="1.1" xmlns="http://www.w3.org/2000/svg" xmlns:xlink="http://www.w3.org/1999/xlink" xml:space="preserve" xmlns:serif="http://www.serif.com/" style="fill-rule:evenodd;clip-rule:evenodd;">
    <g transform="matrix(0.959609,0,0,0.94454,-4.73115e-13,6.92648)">
        <rect x="0" y="-7.333" width="1333.88" height="677.579" style="fill:white;"/>
    </g>
    <g transform="matrix(5.37061,0,0,5.37061,-1511.24,-3847.85)">
        <path d="M307.114,727.721C307.095,727.72 307.076,727.72 307.057,727.72C305.661,727.72 304.512,729.172 304.511,730.937L304.511,757.037C303.128,760.134 302.414,763.438 302.406,766.774C302.417,770.614 303.364,774.406 305.181,777.884C304.072,778.221 302.946,778.671 301.898,779.152C299.28,780.354 297.143,781.715 297.143,781.715L297.704,782.606C297.704,782.606 299.794,781.28 302.336,780.114C303.415,779.619 304.572,779.163 305.673,778.842C306.069,779.526 306.498,780.195 306.958,780.846C305.622,781.187 304.228,781.736 302.948,782.322C300.33,783.524 298.193,784.883 298.193,784.883L298.754,785.774C298.754,785.774 300.844,784.451 303.386,783.284C304.657,782.701 306.04,782.159 307.307,781.845C307.43,781.814 307.544,781.797 307.665,781.771C308.192,782.455 308.755,783.116 309.351,783.752C308.944,783.808 308.532,783.882 308.109,783.987C306.743,784.326 305.31,784.889 304.001,785.49C301.383,786.692 299.246,788.05 299.246,788.05L299.807,788.941C299.807,788.941 301.897,787.617 304.439,786.451C305.71,785.868 307.093,785.326 308.36,785.012C309.07,784.836 309.733,784.747 310.321,784.74C310.846,785.239 311.391,785.72 311.958,786.181C310.528,789.019 309.781,792.127 309.772,795.277C309.772,802.239 313.378,808.768 319.394,812.699C317.54,814.363 316.765,816.507 317.317,818.445C318.225,821.606 322.429,823.391 326.823,822.481C326.977,822.45 327.13,822.415 327.282,822.376C329.063,821.929 330.675,821.073 331.875,819.94C333.076,821.074 334.689,821.929 336.47,822.376C336.623,822.415 336.776,822.45 336.93,822.482C341.323,823.391 345.526,821.607 346.435,818.447C346.991,816.502 346.209,814.349 344.342,812.683C346.604,811.214 348.561,809.356 350.113,807.205C351.918,808.052 353.678,809.475 355.471,810.91C359.911,814.464 365.811,815.44 370.329,812.687C374.847,809.934 377.198,804.33 377.14,797.41L377.14,797.387C377.14,795.071 375.24,793.164 372.93,793.164C372.897,793.164 372.864,793.165 372.831,793.166C370.523,793.219 368.667,795.167 368.719,797.482C368.76,802.502 367.15,804.743 365.956,805.471C364.762,806.199 363.196,806.289 360.724,804.31C359.082,802.996 356.745,800.929 353.537,799.482C353.833,798.098 353.982,796.689 353.983,795.277C353.976,792.129 353.231,789.023 351.804,786.185C352.362,785.722 352.9,785.24 353.416,784.74C354.009,784.751 354.677,784.835 355.394,785.012C356.661,785.326 358.044,785.868 359.315,786.451C361.857,787.618 363.947,788.941 363.947,788.941L364.51,788.05C364.51,788.05 362.37,786.691 359.753,785.49C358.444,784.889 357.014,784.326 355.647,783.987C355.236,783.885 354.833,783.812 354.436,783.756C355.031,783.12 355.592,782.46 356.118,781.777C356.229,781.801 356.334,781.817 356.447,781.844C357.714,782.158 359.096,782.7 360.368,783.283C362.91,784.45 365,785.773 365,785.773L365.563,784.882C365.563,784.882 363.423,783.523 360.806,782.321C359.521,781.731 358.12,781.179 356.776,780.839C357.237,780.188 357.667,779.519 358.063,778.835C359.17,779.157 360.334,779.615 361.42,780.113C363.962,781.28 366.052,782.605 366.052,782.605L366.615,781.714C366.615,781.714 364.475,780.353 361.858,779.151C360.809,778.67 359.684,778.22 358.575,777.883C360.392,774.405 361.34,770.613 361.352,766.773C361.348,763.428 360.634,760.113 359.247,757.007L359.247,730.937C359.246,729.172 358.097,727.72 356.701,727.72C356.681,727.72 356.662,727.721 356.642,727.721C356.216,727.733 355.799,727.881 355.429,728.15L337.896,740.951C335.917,740.579 333.901,740.39 331.879,740.388C329.864,740.398 327.856,740.593 325.885,740.969L308.326,728.15C307.957,727.881 307.54,727.734 307.113,727.722M307.668,734.054L313.649,746.046C311.351,747.667 309.336,749.585 307.669,751.738L307.669,734.054M356.089,734.054L356.089,751.778C354.42,749.619 352.401,747.695 350.098,746.069L356.089,734.059M316.729,763.618C317.771,763.598 318.836,763.715 319.889,763.975C324.094,765.02 327.28,768.178 327.664,771.972C327.688,772.205 327.623,772.438 327.481,772.624C325.126,775.708 320.716,776.964 316.505,775.925C312.3,774.88 309.112,771.722 308.728,767.928C308.704,767.695 308.77,767.462 308.911,767.276C310.678,764.962 313.6,763.678 316.728,763.619L316.729,763.618ZM347.029,763.618C350.156,763.677 353.079,764.961 354.846,767.275C354.988,767.461 355.053,767.694 355.029,767.927C354.644,771.721 351.456,774.879 347.252,775.924C343.041,776.963 338.631,775.708 336.276,772.623C336.135,772.437 336.069,772.204 336.093,771.971C336.478,768.177 339.664,765.019 343.868,763.974C344.921,763.714 345.985,763.597 347.028,763.617L347.029,763.618ZM320.825,765.727L320.824,765.727C319.381,765.727 318.193,767.157 318.193,768.894C318.193,770.631 319.381,772.06 320.824,772.06L320.825,772.06C322.268,772.06 323.456,770.631 323.456,768.894C323.456,767.157 322.268,765.727 320.825,765.727M342.932,765.727C341.488,765.727 340.3,767.157 340.3,768.894C340.3,770.631 341.488,772.06 342.932,772.06C344.374,772.059 345.561,770.63 345.561,768.894C345.561,767.158 344.375,765.729 342.932,765.727M331.879,778.392C333.612,778.392 335.037,779.345 335.037,780.503C335.037,781.661 333.612,782.614 331.879,782.614C330.147,782.614 328.721,781.661 328.721,780.503C328.721,779.345 330.147,778.392 331.879,778.392" style="fill-rule:nonzero;"/>
    </g>
    <g id="red_shield" transform="matrix(0.203186,0,0,0.145463,197.433,406.138)">
        <path d="M360.001,519.846L25,129.4L138.287,20.154L581.744,20.154L695,129.4L360.001,519.846Z" style="fill:white;fill-rule:nonzero;stroke:black;stroke-width:11px;"/>
    </g>
    <g transform="matrix(7.32018,0,0,9.48677,499.71,266.421)">
        <g>
            <path d="M1.5,-1.5L0,-1.5L0,-3L3,-3L3,-1.5L7.5,-1.5L7.5,-4.5L1.5,-4.5L1.5,-6L0,-6L0,-9L1.5,-9L1.5,-10.5L9,-10.5L9,-9L10.5,-9L10.5,-7.5L7.5,-7.5L7.5,-9L3,-9L3,-6L9,-6L9,-4.5L10.5,-4.5L10.5,-1.5L9,-1.5L9,0L1.5,0L1.5,-1.5Z" style="fill-rule:nonzero;"/>
            <path d="M13.5,-1.5L12,-1.5L12,-7.5L15,-7.5L15,-1.5L19.5,-1.5L19.5,-7.5L22.5,-7.5L22.5,-1.5L21,-1.5L21,0L13.5,0L13.5,-1.5Z" style="fill-rule:nonzero;"/>
            <path d="M31.5,-4.5L31.5,-6L27,-6L27,-4.5L31.5,-4.5ZM24,0L24,-7.5L33,-7.5L33,-6L34.5,-6L34.5,-4.5L33,-4.5L33,-3L27,-3L27,0L24,0Z" style="fill-rule:nonzero;"/>
            <path d="M43.5,-4.5L43.5,-6L39,-6L39,-4.5L43.5,-4.5ZM37.5,-1.5L36,-1.5L36,-6L37.5,-6L37.5,-7.5L45,-7.5L45,-6L46.5,-6L46.5,-3L39,-3L39,-1.5L45,-1.5L45,0L37.5,0L37.5,-1.5Z" style="fill-rule:nonzero;"/>
            <path d="M48,0L48,-7.5L51,-7.5L51,-6L52.5,-6L52.5,-4.5L51,-4.5L51,0L48,0ZM57,-6L58.5,-6L58.5,-4.5L55.5,-4.5L55.5,-6L52.5,-6L52.5,-7.5L57,-7.5L57,-6Z" style="fill-rule:nonzero;"/>
            <path d="M61.5,-1.5L60,-1.5L60,-6L61.5,-6L61.5,-7.5L69,-7.5L69,-6L70.5,-6L70.5,-4.5L67.5,-4.5L67.5,-6L63,-6L63,-1.5L67.5,-1.5L67.5,-3L70.5,-3L70.5,-1.5L69,-1.5L69,0L61.5,0L61.5,-1.5Z" style="fill-rule:nonzero;"/>
            <path d="M73.5,-1.5L72,-1.5L72,-3L73.5,-3L73.5,-4.5L79.5,-4.5L79.5,-6L73.5,-6L73.5,-7.5L81,-7.5L81,-6L82.5,-6L82.5,0L73.5,0L73.5,-1.5ZM75,-1.5L79.5,-1.5L79.5,-3L75,-3L75,-1.5Z" style="fill-rule:nonzero;"/>
            <path d="M84,-6L84,-7.5L87,-7.5L87,-10.5L90,-10.5L90,-7.5L94.5,-7.5L94.5,-6L90,-6L90,-1.5L94.5,-1.5L94.5,0L87,0L87,-6L84,-6Z" style="fill-rule:nonzero;"/>
        </g>
    </g>
    <g transform="matrix(22.575,0,0,22.575,-13096.3,-3857.04)">
        <g transform="matrix(1,0,0,1,603.823,186.893)">
            <path d="M0.943,-1.507C0.805,-1.527 0.81,-1.572 0.577,-1.572C0.334,-1.572 0.122,-1.412 0.122,-1.159C0.122,-0.936 0.282,-0.828 0.467,-0.748C0.617,-0.682 0.865,-0.63 0.865,-0.356C0.865,-0.162 0.752,-0.038 0.561,-0.038C0.338,-0.038 0.171,-0.164 0.118,-0.401C0.089,-0.411 0.087,-0.406 0.065,-0.394C0.074,-0.21 0.084,-0.148 0.112,-0.031C0.263,-0.031 0.329,0.024 0.541,0.024C0.65,0.024 0.753,-0.003 0.836,-0.054C0.974,-0.14 1.061,-0.288 1.061,-0.44C1.061,-0.667 0.905,-0.775 0.733,-0.848C0.616,-0.898 0.288,-0.989 0.288,-1.223C0.288,-1.357 0.413,-1.515 0.554,-1.515C0.786,-1.515 0.884,-1.343 0.932,-1.185C0.959,-1.185 0.964,-1.183 0.985,-1.199C0.977,-1.314 0.968,-1.381 0.943,-1.507Z" style="fill-rule:nonzero;"/>
            <path d="M1.629,0.024C1.718,0.024 1.849,-0.024 1.961,-0.115C1.973,-0.124 1.995,-0.129 1.995,-0.112C1.995,-0.06 2.021,0.024 2.021,0.024C2.038,0.031 2.047,0.029 2.064,0.024C2.114,-0.017 2.179,-0.053 2.317,-0.069C2.332,-0.084 2.332,-0.091 2.317,-0.105C2.172,-0.117 2.155,-0.16 2.15,-0.272C2.145,-0.392 2.145,-0.645 2.15,-0.764C2.153,-0.834 2.16,-0.975 2.16,-0.975C2.16,-0.982 2.155,-0.989 2.143,-0.989C2.131,-0.987 2.095,-0.984 2.062,-0.984C1.988,-0.984 1.928,-0.987 1.844,-0.989C1.83,-0.975 1.83,-0.948 1.844,-0.934C1.957,-0.927 1.979,-0.9 1.985,-0.75C1.99,-0.631 1.99,-0.377 1.985,-0.258C1.984,-0.215 1.98,-0.222 1.949,-0.194C1.866,-0.119 1.754,-0.06 1.696,-0.06C1.555,-0.06 1.532,-0.115 1.524,-0.318C1.519,-0.437 1.519,-0.645 1.524,-0.764C1.527,-0.834 1.534,-0.975 1.534,-0.975C1.534,-0.982 1.527,-0.989 1.515,-0.989C1.503,-0.987 1.469,-0.984 1.436,-0.984C1.362,-0.984 1.302,-0.987 1.218,-0.989C1.204,-0.975 1.204,-0.948 1.218,-0.934C1.328,-0.925 1.353,-0.903 1.359,-0.755C1.364,-0.635 1.364,-0.406 1.359,-0.287C1.353,-0.129 1.405,0.024 1.629,0.024Z" style="fill-rule:nonzero;"/>
            <path d="M2.769,-0.784C2.834,-0.864 2.909,-0.92 2.993,-0.92C3.139,-0.92 3.273,-0.779 3.273,-0.497C3.273,-0.311 3.192,-0.031 2.936,-0.031C2.895,-0.031 2.826,-0.043 2.786,-0.079C2.74,-0.119 2.728,-0.158 2.728,-0.239C2.728,-0.239 2.728,-0.54 2.733,-0.659C2.735,-0.707 2.742,-0.751 2.769,-0.784ZM2.75,-0.839C2.744,-0.83 2.728,-0.829 2.728,-0.846C2.728,-0.927 2.735,-0.991 2.735,-0.991C2.735,-1.001 2.726,-1.006 2.707,-1.006C2.642,-0.982 2.571,-0.963 2.413,-0.941C2.408,-0.927 2.413,-0.915 2.418,-0.901C2.54,-0.889 2.561,-0.874 2.566,-0.745C2.571,-0.626 2.571,0.21 2.566,0.33C2.558,0.518 2.542,0.53 2.403,0.538C2.389,0.552 2.389,0.573 2.403,0.588C2.499,0.585 2.553,0.576 2.649,0.576C2.755,0.576 2.821,0.585 2.919,0.588C2.934,0.573 2.934,0.552 2.919,0.538C2.757,0.528 2.741,0.518 2.733,0.33C2.728,0.21 2.728,0.005 2.728,0.005C2.728,-0.024 2.74,-0.022 2.764,-0.012C2.819,0.01 2.879,0.024 2.95,0.024C3.077,0.024 3.192,-0.017 3.285,-0.105C3.392,-0.21 3.454,-0.375 3.454,-0.559C3.454,-0.824 3.282,-1.001 3.051,-1.001C2.912,-1.001 2.829,-0.942 2.75,-0.839Z" style="fill-rule:nonzero;"/>
            <path d="M3.818,-0.619C3.861,-0.877 4.011,-0.946 4.097,-0.946C4.207,-0.946 4.312,-0.853 4.312,-0.662C4.312,-0.64 4.303,-0.631 4.279,-0.631L3.818,-0.619ZM4.448,-0.213C4.365,-0.127 4.286,-0.065 4.154,-0.065C4.073,-0.065 3.954,-0.112 3.882,-0.229C3.837,-0.303 3.81,-0.418 3.81,-0.549L4.451,-0.559C4.477,-0.56 4.494,-0.576 4.494,-0.6C4.494,-0.791 4.415,-1.001 4.097,-1.001C3.882,-1.001 3.629,-0.807 3.629,-0.461C3.629,-0.334 3.662,-0.208 3.736,-0.122C3.813,-0.031 3.932,0.024 4.097,0.024C4.269,0.024 4.405,-0.055 4.496,-0.174C4.489,-0.198 4.475,-0.21 4.448,-0.213Z" style="fill-rule:nonzero;"/>
            <path d="M4.826,-0.745C4.831,-0.624 4.831,-0.369 4.826,-0.248C4.818,-0.06 4.8,-0.055 4.659,-0.043C4.644,-0.029 4.644,-0.002 4.659,0.012C4.73,0.007 4.838,0 4.909,0C4.979,0 5.101,0.007 5.179,0.012C5.194,-0.002 5.194,-0.029 5.179,-0.043C5.019,-0.057 5,-0.06 4.993,-0.248C4.988,-0.369 4.991,-0.549 4.993,-0.595C4.996,-0.655 5.024,-0.719 5.048,-0.76C5.07,-0.797 5.127,-0.882 5.153,-0.882C5.17,-0.882 5.189,-0.878 5.198,-0.86C5.215,-0.829 5.246,-0.786 5.294,-0.786C5.349,-0.786 5.402,-0.834 5.402,-0.891C5.402,-0.934 5.375,-1.001 5.263,-1.001C5.177,-1.001 5.086,-0.925 5.01,-0.81C4.994,-0.787 4.991,-0.819 4.991,-0.831C4.991,-0.905 4.988,-0.977 4.983,-0.991C4.98,-1.001 4.974,-1.006 4.955,-1.006C4.89,-0.982 4.831,-0.963 4.673,-0.941C4.668,-0.927 4.668,-0.915 4.678,-0.901C4.8,-0.889 4.821,-0.87 4.826,-0.745Z" style="fill-rule:nonzero;"/>
            <path d="M6.085,-0.552C6.116,-0.552 6.149,-0.604 6.149,-0.633C6.149,-0.657 6.14,-0.657 6.116,-0.657L5.593,-0.657C5.564,-0.657 5.533,-0.616 5.533,-0.573C5.533,-0.549 5.547,-0.552 5.569,-0.552L6.085,-0.552Z" style="fill-rule:nonzero;"/>
            <path d="M6.486,-0.745C6.491,-0.624 6.491,-0.369 6.486,-0.248C6.479,-0.06 6.46,-0.055 6.319,-0.043C6.305,-0.029 6.305,-0.002 6.319,0.012C6.391,0.007 6.498,0 6.57,0C6.639,0 6.761,0.007 6.84,0.012C6.854,-0.002 6.854,-0.029 6.84,-0.043C6.68,-0.057 6.661,-0.06 6.653,-0.248C6.649,-0.369 6.651,-0.549 6.653,-0.595C6.656,-0.655 6.684,-0.719 6.708,-0.76C6.73,-0.797 6.787,-0.882 6.813,-0.882C6.83,-0.882 6.849,-0.878 6.859,-0.86C6.876,-0.829 6.907,-0.786 6.954,-0.786C7.009,-0.786 7.062,-0.834 7.062,-0.891C7.062,-0.934 7.036,-1.001 6.923,-1.001C6.837,-1.001 6.747,-0.925 6.67,-0.81C6.655,-0.787 6.651,-0.819 6.651,-0.831C6.651,-0.905 6.649,-0.977 6.644,-0.991C6.641,-1.001 6.634,-1.006 6.615,-1.006C6.551,-0.982 6.491,-0.963 6.333,-0.941C6.328,-0.927 6.328,-0.915 6.338,-0.901C6.46,-0.889 6.481,-0.87 6.486,-0.745Z" style="fill-rule:nonzero;"/>
            <path d="M7.37,-0.619C7.413,-0.877 7.564,-0.946 7.65,-0.946C7.759,-0.946 7.865,-0.853 7.865,-0.662C7.865,-0.64 7.855,-0.631 7.831,-0.631L7.37,-0.619ZM8.001,-0.213C7.917,-0.127 7.838,-0.065 7.707,-0.065C7.626,-0.065 7.506,-0.112 7.435,-0.229C7.389,-0.303 7.363,-0.418 7.363,-0.549L8.003,-0.559C8.029,-0.56 8.046,-0.576 8.046,-0.6C8.046,-0.791 7.967,-1.001 7.65,-1.001C7.434,-1.001 7.181,-0.807 7.181,-0.461C7.181,-0.334 7.215,-0.208 7.289,-0.122C7.365,-0.031 7.485,0.024 7.65,0.024C7.822,0.024 7.958,-0.055 8.049,-0.174C8.041,-0.198 8.027,-0.21 8.001,-0.213Z" style="fill-rule:nonzero;"/>
            <path d="M8.247,-0.301C8.256,-0.189 8.261,-0.096 8.261,0C8.285,-0.005 8.307,-0.007 8.318,-0.007C8.335,-0.007 8.347,-0.007 8.364,-0.002C8.426,0.014 8.488,0.024 8.572,0.024C8.698,0.024 8.935,-0.041 8.935,-0.265C8.935,-0.42 8.823,-0.497 8.667,-0.557C8.531,-0.609 8.431,-0.655 8.431,-0.779C8.431,-0.872 8.507,-0.948 8.6,-0.948C8.684,-0.948 8.806,-0.917 8.835,-0.724C8.849,-0.712 8.87,-0.712 8.885,-0.726C8.892,-0.807 8.894,-0.882 8.897,-0.956C8.825,-0.968 8.72,-1.001 8.6,-1.001C8.419,-1.001 8.278,-0.904 8.278,-0.745C8.278,-0.578 8.367,-0.511 8.529,-0.442C8.716,-0.362 8.768,-0.311 8.768,-0.213C8.768,-0.1 8.651,-0.029 8.567,-0.029C8.479,-0.029 8.416,-0.067 8.393,-0.091C8.338,-0.143 8.307,-0.246 8.292,-0.303C8.278,-0.318 8.261,-0.315 8.247,-0.301Z" style="fill-rule:nonzero;"/>
            <path d="M9.126,-0.466C9.126,-0.234 9.281,0.024 9.604,0.024C9.75,0.024 9.859,-0.029 9.938,-0.105C10.041,-0.205 10.086,-0.349 10.086,-0.487C10.086,-0.724 9.957,-1.001 9.609,-1.001C9.458,-1.001 9.336,-0.939 9.253,-0.841C9.169,-0.743 9.126,-0.609 9.126,-0.466ZM9.575,-0.946C9.771,-0.946 9.905,-0.743 9.905,-0.416C9.905,-0.129 9.745,-0.031 9.637,-0.031C9.401,-0.031 9.308,-0.344 9.308,-0.518C9.308,-0.717 9.37,-0.946 9.575,-0.946Z" style="fill-rule:nonzero;"/>
            <path d="M10.404,-0.246C10.399,-0.057 10.378,-0.05 10.239,-0.043C10.225,-0.028 10.225,-0.002 10.239,0.012C10.335,0.01 10.392,0 10.49,0C10.588,0 10.645,0.01 10.743,0.012C10.757,-0.002 10.758,-0.028 10.743,-0.043C10.605,-0.05 10.583,-0.057 10.578,-0.246C10.576,-0.335 10.573,-0.556 10.573,-0.786C10.573,-1.051 10.577,-1.328 10.578,-1.431C10.581,-1.579 10.588,-1.646 10.588,-1.646C10.588,-1.663 10.578,-1.668 10.557,-1.668C10.5,-1.644 10.342,-1.615 10.251,-1.608C10.246,-1.589 10.244,-1.577 10.258,-1.562C10.378,-1.555 10.396,-1.544 10.404,-1.376C10.408,-1.285 10.411,-1.07 10.411,-0.848C10.411,-0.601 10.407,-0.346 10.404,-0.246Z" style="fill-rule:nonzero;"/>
            <path d="M11.257,0.024C11.345,0.024 11.477,-0.024 11.589,-0.115C11.601,-0.124 11.622,-0.129 11.622,-0.112C11.622,-0.06 11.649,0.024 11.649,0.024C11.665,0.031 11.675,0.029 11.692,0.024C11.742,-0.017 11.806,-0.053 11.945,-0.069C11.959,-0.084 11.959,-0.091 11.945,-0.105C11.799,-0.117 11.782,-0.16 11.778,-0.272C11.773,-0.392 11.773,-0.645 11.778,-0.764C11.781,-0.834 11.787,-0.975 11.787,-0.975C11.787,-0.982 11.783,-0.989 11.771,-0.989C11.759,-0.987 11.723,-0.984 11.689,-0.984C11.615,-0.984 11.556,-0.987 11.472,-0.989C11.458,-0.975 11.458,-0.948 11.472,-0.934C11.584,-0.927 11.607,-0.9 11.613,-0.75C11.618,-0.631 11.618,-0.377 11.613,-0.258C11.611,-0.215 11.608,-0.222 11.577,-0.194C11.493,-0.119 11.381,-0.06 11.324,-0.06C11.183,-0.06 11.16,-0.115 11.152,-0.318C11.147,-0.437 11.147,-0.645 11.152,-0.764C11.155,-0.834 11.161,-0.975 11.161,-0.975C11.161,-0.982 11.154,-0.989 11.142,-0.989C11.13,-0.987 11.097,-0.984 11.063,-0.984C10.989,-0.984 10.93,-0.987 10.846,-0.989C10.832,-0.975 10.832,-0.948 10.846,-0.934C10.956,-0.925 10.981,-0.903 10.987,-0.755C10.992,-0.635 10.992,-0.406 10.987,-0.287C10.981,-0.129 11.032,0.024 11.257,0.024Z" style="fill-rule:nonzero;"/>
            <path d="M12.11,-0.977C12.079,-0.977 12.069,-0.963 12.069,-0.944L12.069,-0.922C12.069,-0.91 12.072,-0.908 12.081,-0.908L12.215,-0.908C12.215,-0.681 12.203,-0.346 12.203,-0.203C12.203,-0.041 12.258,0.024 12.363,0.024C12.468,0.024 12.583,-0.026 12.671,-0.127C12.666,-0.151 12.663,-0.155 12.647,-0.16C12.588,-0.115 12.504,-0.079 12.444,-0.079C12.382,-0.079 12.374,-0.148 12.368,-0.289C12.363,-0.409 12.37,-0.695 12.38,-0.908L12.616,-0.908C12.64,-0.908 12.671,-0.915 12.671,-0.936L12.671,-0.963C12.671,-0.972 12.666,-0.977 12.655,-0.977L12.38,-0.977L12.382,-1.113C12.385,-1.261 12.392,-1.352 12.392,-1.352C12.392,-1.367 12.385,-1.374 12.375,-1.374C12.358,-1.374 12.322,-1.347 12.287,-1.333C12.248,-1.316 12.208,-1.314 12.208,-1.29C12.208,-1.264 12.215,-1.23 12.215,-0.977L12.11,-0.977Z" style="fill-rule:nonzero;"/>
            <path d="M12.905,-1.431C12.905,-1.369 12.963,-1.307 13.02,-1.307C13.087,-1.307 13.144,-1.371 13.144,-1.421C13.144,-1.479 13.094,-1.546 13.03,-1.546C12.972,-1.546 12.905,-1.488 12.905,-1.431ZM13.135,-0.26C13.132,-0.332 13.13,-0.453 13.13,-0.524C13.13,-0.596 13.131,-0.671 13.135,-0.744C13.141,-0.862 13.149,-0.991 13.149,-0.991C13.149,-1.001 13.137,-1.008 13.118,-1.008C13.05,-0.982 12.965,-0.96 12.8,-0.939C12.795,-0.925 12.8,-0.91 12.805,-0.896C12.935,-0.884 12.953,-0.872 12.96,-0.733C12.964,-0.662 12.965,-0.598 12.965,-0.527C12.965,-0.455 12.962,-0.332 12.96,-0.26C12.954,-0.062 12.934,-0.055 12.788,-0.043C12.774,-0.029 12.774,-0.002 12.788,0.012C12.85,0.007 12.978,0 13.049,0C13.123,0 13.235,0.007 13.307,0.012C13.321,-0.002 13.321,-0.029 13.307,-0.043C13.161,-0.053 13.142,-0.06 13.135,-0.26Z" style="fill-rule:nonzero;"/>
            <path d="M13.448,-0.466C13.448,-0.234 13.603,0.024 13.925,0.024C14.071,0.024 14.181,-0.029 14.26,-0.105C14.363,-0.205 14.408,-0.349 14.408,-0.487C14.408,-0.724 14.279,-1.001 13.93,-1.001C13.78,-1.001 13.658,-0.939 13.574,-0.841C13.491,-0.743 13.448,-0.609 13.448,-0.466ZM13.897,-0.946C14.093,-0.946 14.226,-0.743 14.226,-0.416C14.226,-0.129 14.066,-0.031 13.959,-0.031C13.722,-0.031 13.629,-0.344 13.629,-0.518C13.629,-0.717 13.691,-0.946 13.897,-0.946Z" style="fill-rule:nonzero;"/>
            <path d="M14.922,-0.815C14.915,-0.805 14.9,-0.784 14.9,-0.815C14.9,-0.884 14.912,-0.989 14.912,-0.989C14.912,-1.001 14.903,-1.006 14.883,-1.006C14.819,-0.982 14.74,-0.963 14.582,-0.941C14.578,-0.927 14.582,-0.915 14.587,-0.901C14.709,-0.889 14.731,-0.878 14.735,-0.745C14.74,-0.623 14.738,-0.366 14.735,-0.248C14.731,-0.062 14.711,-0.055 14.575,-0.043C14.561,-0.029 14.561,-0.002 14.575,0.012C14.668,0.01 14.723,0 14.821,0C14.91,0 14.943,0.01 15.039,0.012C15.053,-0.002 15.053,-0.029 15.039,-0.043C14.922,-0.055 14.907,-0.062 14.903,-0.248C14.9,-0.36 14.897,-0.563 14.903,-0.676C14.905,-0.724 14.922,-0.75 14.941,-0.772C15.027,-0.855 15.153,-0.905 15.242,-0.905C15.287,-0.905 15.337,-0.877 15.364,-0.824C15.388,-0.779 15.385,-0.717 15.388,-0.647C15.392,-0.528 15.392,-0.368 15.388,-0.248C15.38,-0.062 15.366,-0.055 15.247,-0.043C15.235,-0.029 15.235,-0.002 15.247,0.012C15.342,0.01 15.385,0 15.476,0C15.569,0 15.612,0.01 15.71,0.012C15.722,-0.002 15.722,-0.029 15.71,-0.043C15.583,-0.055 15.565,-0.062 15.557,-0.248C15.552,-0.367 15.552,-0.497 15.557,-0.616C15.559,-0.652 15.56,-0.687 15.56,-0.72C15.56,-0.801 15.551,-0.871 15.514,-0.922C15.476,-0.972 15.399,-1.001 15.321,-1.001C15.208,-1.001 15.06,-0.97 14.922,-0.815Z" style="fill-rule:nonzero;"/>
            <path d="M16.451,-0.466C16.451,-0.234 16.606,0.024 16.928,0.024C17.074,0.024 17.184,-0.029 17.263,-0.105C17.366,-0.205 17.411,-0.349 17.411,-0.487C17.411,-0.724 17.282,-1.001 16.933,-1.001C16.783,-1.001 16.661,-0.939 16.577,-0.841C16.494,-0.743 16.451,-0.609 16.451,-0.466ZM16.9,-0.946C17.096,-0.946 17.229,-0.743 17.229,-0.416C17.229,-0.129 17.069,-0.031 16.962,-0.031C16.725,-0.031 16.632,-0.344 16.632,-0.518C16.632,-0.717 16.694,-0.946 16.9,-0.946Z" style="fill-rule:nonzero;"/>
            <path d="M17.734,-1.147C17.735,-1.113 17.736,-1.052 17.736,-0.977L17.616,-0.977C17.576,-0.977 17.564,-0.963 17.564,-0.944L17.564,-0.922C17.564,-0.91 17.566,-0.908 17.576,-0.908L17.737,-0.908C17.738,-0.671 17.737,-0.348 17.734,-0.248C17.727,-0.06 17.707,-0.053 17.585,-0.043C17.571,-0.029 17.571,-0.002 17.585,0.012C17.681,0.01 17.722,0 17.81,0C17.915,0 17.98,0.01 18.078,0.012C18.092,-0.002 18.092,-0.029 18.078,-0.043C17.922,-0.053 17.905,-0.06 17.898,-0.248C17.895,-0.344 17.894,-0.662 17.895,-0.908L18.111,-0.908C18.133,-0.908 18.161,-0.905 18.161,-0.927L18.161,-0.963C18.161,-0.972 18.156,-0.977 18.144,-0.977L17.896,-0.977C17.896,-1.07 17.897,-1.146 17.898,-1.185C17.902,-1.307 17.912,-1.395 17.931,-1.46C17.968,-1.581 18.029,-1.615 18.078,-1.615C18.147,-1.615 18.18,-1.567 18.211,-1.488C18.23,-1.448 18.254,-1.417 18.302,-1.417C18.34,-1.417 18.4,-1.46 18.4,-1.505C18.4,-1.543 18.374,-1.584 18.326,-1.62C18.266,-1.66 18.207,-1.668 18.121,-1.668C18.01,-1.668 17.89,-1.613 17.814,-1.498C17.758,-1.414 17.729,-1.297 17.734,-1.147Z" style="fill-rule:nonzero;"/>
            <path d="M19.676,0.024C19.908,0.024 20.144,-0.086 20.306,-0.299C20.295,-0.32 20.278,-0.334 20.252,-0.334C20.082,-0.148 19.919,-0.074 19.697,-0.074C19.327,-0.074 19.141,-0.449 19.141,-0.798C19.141,-1.189 19.391,-1.507 19.69,-1.507C20.02,-1.507 20.161,-1.288 20.223,-1.082C20.245,-1.08 20.261,-1.083 20.278,-1.094C20.266,-1.218 20.249,-1.333 20.225,-1.464C20.103,-1.476 19.996,-1.572 19.702,-1.572C19.229,-1.572 18.926,-1.203 18.926,-0.753C18.926,-0.33 19.162,0.024 19.676,0.024Z" style="fill-rule:nonzero;"/>
            <path d="M21.026,-1.281C21.031,-1.084 21.03,-0.965 21.03,-0.767C21.03,-0.569 21.03,-0.459 21.026,-0.26C21.021,-0.062 20.959,-0.05 20.791,-0.043C20.777,-0.029 20.777,-0.002 20.791,0.012C20.909,0.01 20.995,0 21.126,0C21.255,0 21.339,0.01 21.458,0.012C21.472,-0.002 21.472,-0.029 21.458,-0.043C21.291,-0.05 21.229,-0.062 21.224,-0.26C21.219,-0.457 21.219,-0.566 21.219,-0.764C21.219,-0.963 21.217,-1.078 21.224,-1.281C21.229,-1.433 21.25,-1.472 21.336,-1.472L21.413,-1.472C21.592,-1.472 21.704,-1.386 21.745,-1.202C21.771,-1.202 21.781,-1.204 21.802,-1.214C21.785,-1.324 21.773,-1.453 21.771,-1.56C21.771,-1.562 21.766,-1.567 21.764,-1.567C21.683,-1.56 21.417,-1.541 21.229,-1.541L21.023,-1.541C20.839,-1.541 20.557,-1.56 20.467,-1.567C20.462,-1.567 20.457,-1.562 20.457,-1.56C20.447,-1.453 20.424,-1.321 20.397,-1.206C20.421,-1.197 20.426,-1.194 20.455,-1.194C20.502,-1.386 20.612,-1.472 20.77,-1.472L20.911,-1.472C20.999,-1.472 21.022,-1.426 21.026,-1.281Z" style="fill-rule:nonzero;"/>
            <path d="M22.523,-0.301C22.533,-0.189 22.538,-0.096 22.538,0C22.562,-0.005 22.583,-0.007 22.595,-0.007C22.612,-0.007 22.624,-0.007 22.641,-0.002C22.703,0.014 22.765,0.024 22.848,0.024C22.975,0.024 23.212,-0.041 23.212,-0.265C23.212,-0.42 23.099,-0.497 22.944,-0.557C22.808,-0.609 22.707,-0.655 22.707,-0.779C22.707,-0.872 22.784,-0.948 22.877,-0.948C22.961,-0.948 23.083,-0.917 23.111,-0.724C23.126,-0.712 23.147,-0.712 23.161,-0.726C23.169,-0.807 23.171,-0.882 23.173,-0.956C23.102,-0.968 22.997,-1.001 22.877,-1.001C22.695,-1.001 22.555,-0.904 22.555,-0.745C22.555,-0.578 22.644,-0.511 22.805,-0.442C22.992,-0.362 23.044,-0.311 23.044,-0.213C23.044,-0.1 22.927,-0.029 22.844,-0.029C22.755,-0.029 22.693,-0.067 22.669,-0.091C22.614,-0.143 22.583,-0.246 22.569,-0.303C22.555,-0.318 22.538,-0.315 22.523,-0.301Z" style="fill-rule:nonzero;"/>
            <path d="M24.236,-0.208C24.227,-0.229 24.222,-0.229 24.201,-0.232C24.124,-0.131 24.002,-0.065 23.904,-0.065C23.725,-0.065 23.572,-0.237 23.572,-0.523C23.572,-0.774 23.708,-0.946 23.859,-0.946C23.993,-0.946 24.029,-0.843 24.038,-0.764C24.045,-0.7 24.076,-0.683 24.124,-0.683C24.172,-0.683 24.234,-0.712 24.234,-0.784C24.234,-0.908 24.091,-1.001 23.871,-1.001C23.646,-1.001 23.391,-0.796 23.391,-0.473C23.391,-0.179 23.567,0.024 23.854,0.024C23.99,0.024 24.122,-0.022 24.236,-0.208Z" style="fill-rule:nonzero;"/>
            <path d="M25.008,-0.506L24.996,-0.227C24.995,-0.199 24.984,-0.184 24.965,-0.17C24.905,-0.122 24.824,-0.048 24.76,-0.048C24.645,-0.048 24.583,-0.148 24.583,-0.22C24.583,-0.309 24.642,-0.417 24.812,-0.459L25.008,-0.506ZM24.996,-0.11C25.01,-0.062 25.046,0.024 25.168,0.024C25.28,0.024 25.362,-0.067 25.362,-0.079C25.362,-0.096 25.338,-0.11 25.328,-0.11C25.314,-0.11 25.307,-0.072 25.259,-0.072C25.171,-0.072 25.159,-0.143 25.163,-0.275L25.175,-0.614C25.187,-0.934 25.018,-1.001 24.85,-1.001C24.664,-1.001 24.463,-0.882 24.463,-0.76C24.463,-0.705 24.502,-0.667 24.554,-0.667C24.621,-0.667 24.659,-0.726 24.659,-0.755C24.659,-0.772 24.657,-0.786 24.652,-0.796C24.65,-0.803 24.647,-0.817 24.647,-0.841C24.647,-0.913 24.745,-0.948 24.831,-0.948C24.908,-0.948 25.01,-0.886 25.01,-0.628C25.01,-0.612 25.006,-0.581 24.998,-0.578L24.783,-0.53C24.562,-0.481 24.408,-0.366 24.408,-0.21C24.408,-0.036 24.533,0.024 24.693,0.024C24.798,0.024 24.846,0.002 24.946,-0.074L24.991,-0.11L24.996,-0.11Z" style="fill-rule:nonzero;"/>
            <path d="M25.811,-0.815C25.804,-0.805 25.789,-0.784 25.789,-0.815C25.789,-0.884 25.801,-0.989 25.801,-0.989C25.801,-1.001 25.792,-1.006 25.773,-1.006C25.708,-0.982 25.629,-0.963 25.472,-0.941C25.467,-0.927 25.472,-0.915 25.476,-0.901C25.598,-0.889 25.62,-0.878 25.624,-0.745C25.629,-0.623 25.628,-0.366 25.624,-0.248C25.62,-0.062 25.601,-0.055 25.464,-0.043C25.45,-0.029 25.45,-0.002 25.464,0.012C25.558,0.01 25.612,0 25.71,0C25.799,0 25.832,0.01 25.928,0.012C25.942,-0.002 25.942,-0.029 25.928,-0.043C25.811,-0.055 25.796,-0.062 25.792,-0.248C25.789,-0.36 25.786,-0.563 25.792,-0.676C25.794,-0.724 25.811,-0.75 25.83,-0.772C25.916,-0.855 26.042,-0.905 26.131,-0.905C26.176,-0.905 26.226,-0.877 26.253,-0.824C26.277,-0.779 26.274,-0.717 26.277,-0.647C26.281,-0.528 26.281,-0.368 26.277,-0.248C26.269,-0.062 26.255,-0.055 26.136,-0.043C26.124,-0.029 26.124,-0.002 26.136,0.012C26.231,0.01 26.274,0 26.365,0C26.458,0 26.501,0.01 26.599,0.012C26.611,-0.002 26.611,-0.029 26.599,-0.043C26.473,-0.055 26.454,-0.062 26.446,-0.248C26.441,-0.367 26.441,-0.497 26.446,-0.616C26.448,-0.652 26.449,-0.687 26.449,-0.72C26.449,-0.801 26.44,-0.871 26.403,-0.922C26.365,-0.972 26.289,-1.001 26.21,-1.001C26.097,-1.001 25.949,-0.97 25.811,-0.815Z" style="fill-rule:nonzero;"/>
            <path d="M26.757,-0.301C26.766,-0.189 26.771,-0.096 26.771,0C26.795,-0.005 26.817,-0.007 26.828,-0.007C26.845,-0.007 26.857,-0.007 26.874,-0.002C26.936,0.014 26.998,0.024 27.082,0.024C27.208,0.024 27.445,-0.041 27.445,-0.265C27.445,-0.42 27.333,-0.497 27.177,-0.557C27.041,-0.609 26.941,-0.655 26.941,-0.779C26.941,-0.872 27.017,-0.948 27.11,-0.948C27.194,-0.948 27.316,-0.917 27.344,-0.724C27.359,-0.712 27.38,-0.712 27.395,-0.726C27.402,-0.807 27.404,-0.882 27.407,-0.956C27.335,-0.968 27.23,-1.001 27.11,-1.001C26.929,-1.001 26.788,-0.904 26.788,-0.745C26.788,-0.578 26.877,-0.511 27.039,-0.442C27.226,-0.362 27.278,-0.311 27.278,-0.213C27.278,-0.1 27.161,-0.029 27.077,-0.029C26.989,-0.029 26.926,-0.067 26.903,-0.091C26.848,-0.143 26.817,-0.246 26.802,-0.303C26.788,-0.318 26.771,-0.315 26.757,-0.301Z" style="fill-rule:nonzero;"/>
        </g>
        <g transform="matrix(1,0,0,1,609.719,189.282)">
            <path d="M0.096,-0.466C0.096,-0.234 0.251,0.024 0.573,0.024C0.719,0.024 0.829,-0.029 0.908,-0.105C1.011,-0.205 1.056,-0.349 1.056,-0.487C1.056,-0.724 0.927,-1.001 0.578,-1.001C0.428,-1.001 0.306,-0.939 0.222,-0.841C0.139,-0.743 0.096,-0.609 0.096,-0.466ZM0.545,-0.946C0.741,-0.946 0.874,-0.743 0.874,-0.416C0.874,-0.129 0.714,-0.031 0.607,-0.031C0.37,-0.031 0.277,-0.344 0.277,-0.518C0.277,-0.717 0.339,-0.946 0.545,-0.946Z" style="fill-rule:nonzero;"/>
            <path d="M1.378,-1.147C1.38,-1.113 1.381,-1.052 1.381,-0.977L1.261,-0.977C1.221,-0.977 1.209,-0.963 1.209,-0.944L1.209,-0.922C1.209,-0.91 1.211,-0.908 1.221,-0.908L1.382,-0.908C1.383,-0.671 1.382,-0.348 1.378,-0.248C1.372,-0.06 1.352,-0.053 1.23,-0.043C1.216,-0.029 1.216,-0.002 1.23,0.012C1.326,0.01 1.367,0 1.455,0C1.56,0 1.625,0.01 1.722,0.012C1.737,-0.002 1.737,-0.029 1.722,-0.043C1.567,-0.053 1.55,-0.06 1.543,-0.248C1.54,-0.344 1.539,-0.662 1.54,-0.908L1.756,-0.908C1.777,-0.908 1.806,-0.905 1.806,-0.927L1.806,-0.963C1.806,-0.972 1.801,-0.977 1.789,-0.977L1.54,-0.977C1.541,-1.07 1.542,-1.146 1.543,-1.185C1.547,-1.307 1.556,-1.395 1.576,-1.46C1.613,-1.581 1.674,-1.615 1.722,-1.615C1.792,-1.615 1.825,-1.567 1.856,-1.488C1.875,-1.448 1.899,-1.417 1.947,-1.417C1.985,-1.417 2.045,-1.46 2.045,-1.505C2.045,-1.543 2.019,-1.584 1.971,-1.62C1.911,-1.66 1.851,-1.668 1.765,-1.668C1.655,-1.668 1.535,-1.613 1.459,-1.498C1.403,-1.414 1.373,-1.297 1.378,-1.147Z" style="fill-rule:nonzero;"/>
            <path d="M2.723,-0.745C2.728,-0.624 2.728,-0.369 2.723,-0.248C2.716,-0.06 2.697,-0.055 2.556,-0.043C2.542,-0.029 2.542,-0.002 2.556,0.012C2.628,0.007 2.735,0 2.807,0C2.876,0 2.998,0.007 3.077,0.012C3.091,-0.002 3.091,-0.029 3.077,-0.043C2.917,-0.057 2.898,-0.06 2.891,-0.248C2.886,-0.369 2.888,-0.549 2.891,-0.595C2.894,-0.655 2.922,-0.719 2.946,-0.76C2.967,-0.797 3.024,-0.882 3.051,-0.882C3.067,-0.882 3.087,-0.878 3.096,-0.86C3.113,-0.829 3.144,-0.786 3.192,-0.786C3.247,-0.786 3.299,-0.834 3.299,-0.891C3.299,-0.934 3.273,-1.001 3.161,-1.001C3.074,-1.001 2.984,-0.925 2.907,-0.81C2.892,-0.787 2.888,-0.819 2.888,-0.831C2.888,-0.905 2.886,-0.977 2.881,-0.991C2.878,-1.001 2.872,-1.006 2.852,-1.006C2.788,-0.982 2.728,-0.963 2.571,-0.941C2.566,-0.927 2.566,-0.915 2.575,-0.901C2.697,-0.889 2.719,-0.87 2.723,-0.745Z" style="fill-rule:nonzero;"/>
            <path d="M3.431,-0.466C3.431,-0.234 3.586,0.024 3.908,0.024C4.054,0.024 4.164,-0.029 4.243,-0.105C4.346,-0.205 4.391,-0.349 4.391,-0.487C4.391,-0.724 4.262,-1.001 3.913,-1.001C3.763,-1.001 3.641,-0.939 3.557,-0.841C3.474,-0.743 3.431,-0.609 3.431,-0.466ZM3.88,-0.946C4.076,-0.946 4.209,-0.743 4.209,-0.416C4.209,-0.129 4.049,-0.031 3.942,-0.031C3.705,-0.031 3.612,-0.344 3.612,-0.518C3.612,-0.717 3.674,-0.946 3.88,-0.946Z" style="fill-rule:nonzero;"/>
            <path d="M5.416,-0.208C5.406,-0.229 5.402,-0.229 5.38,-0.232C5.304,-0.131 5.182,-0.065 5.084,-0.065C4.905,-0.065 4.752,-0.237 4.752,-0.523C4.752,-0.774 4.888,-0.946 5.038,-0.946C5.172,-0.946 5.209,-0.843 5.218,-0.764C5.225,-0.7 5.256,-0.683 5.304,-0.683C5.351,-0.683 5.413,-0.712 5.413,-0.784C5.413,-0.908 5.27,-1.001 5.05,-1.001C4.826,-1.001 4.57,-0.796 4.57,-0.473C4.57,-0.179 4.747,0.024 5.034,0.024C5.17,0.024 5.301,-0.022 5.416,-0.208Z" style="fill-rule:nonzero;"/>
            <path d="M5.681,-0.246C5.676,-0.057 5.655,-0.05 5.516,-0.043C5.502,-0.028 5.502,-0.002 5.516,0.012C5.612,0.01 5.669,0 5.767,0C5.865,0 5.922,0.01 6.02,0.012C6.034,-0.002 6.035,-0.028 6.02,-0.043C5.882,-0.05 5.86,-0.057 5.855,-0.246C5.854,-0.293 5.853,-0.376 5.852,-0.478C5.967,-0.477 6.006,-0.458 6.056,-0.389L6.221,-0.167C6.285,-0.08 6.3,-0.033 6.309,0C6.312,0.007 6.314,0.012 6.319,0.012C6.355,0.007 6.414,0 6.446,0C6.481,0 6.589,0.007 6.634,0.012C6.649,-0.002 6.649,-0.029 6.634,-0.043C6.558,-0.053 6.498,-0.091 6.438,-0.167L6.137,-0.545C6.13,-0.554 6.121,-0.564 6.121,-0.576C6.121,-0.585 6.121,-0.59 6.13,-0.6L6.331,-0.805C6.4,-0.879 6.479,-0.925 6.57,-0.934C6.584,-0.948 6.584,-0.975 6.57,-0.989C6.486,-0.987 6.453,-0.977 6.371,-0.977C6.285,-0.977 6.231,-0.987 6.147,-0.989C6.133,-0.975 6.133,-0.948 6.147,-0.934C6.274,-0.925 6.245,-0.817 6.223,-0.791C6.171,-0.724 6.099,-0.647 6.042,-0.604C5.99,-0.567 5.896,-0.539 5.851,-0.533C5.85,-0.611 5.85,-0.698 5.85,-0.786C5.85,-1.051 5.854,-1.328 5.855,-1.431C5.858,-1.579 5.865,-1.646 5.865,-1.646C5.865,-1.663 5.855,-1.668 5.834,-1.668C5.777,-1.644 5.619,-1.615 5.528,-1.608C5.523,-1.589 5.521,-1.577 5.535,-1.562C5.655,-1.555 5.673,-1.544 5.681,-1.376C5.685,-1.285 5.687,-1.07 5.687,-0.848C5.687,-0.601 5.684,-0.346 5.681,-0.246Z" style="fill-rule:nonzero;"/>
            <path d="M7.955,-0.506L7.943,-0.227C7.942,-0.199 7.931,-0.184 7.912,-0.17C7.853,-0.122 7.771,-0.048 7.707,-0.048C7.592,-0.048 7.53,-0.148 7.53,-0.22C7.53,-0.309 7.589,-0.417 7.759,-0.459L7.955,-0.506ZM7.943,-0.11C7.958,-0.062 7.994,0.024 8.115,0.024C8.228,0.024 8.309,-0.067 8.309,-0.079C8.309,-0.096 8.285,-0.11 8.275,-0.11C8.261,-0.11 8.254,-0.072 8.206,-0.072C8.118,-0.072 8.106,-0.143 8.111,-0.275L8.123,-0.614C8.134,-0.934 7.965,-1.001 7.798,-1.001C7.611,-1.001 7.411,-0.882 7.411,-0.76C7.411,-0.705 7.449,-0.667 7.501,-0.667C7.568,-0.667 7.607,-0.726 7.607,-0.755C7.607,-0.772 7.604,-0.786 7.599,-0.796C7.597,-0.803 7.595,-0.817 7.595,-0.841C7.595,-0.913 7.693,-0.948 7.779,-0.948C7.855,-0.948 7.958,-0.886 7.958,-0.628C7.958,-0.612 7.953,-0.581 7.946,-0.578L7.731,-0.53C7.51,-0.481 7.356,-0.366 7.356,-0.21C7.356,-0.036 7.48,0.024 7.64,0.024C7.745,0.024 7.793,0.002 7.893,-0.074L7.939,-0.11L7.943,-0.11Z" style="fill-rule:nonzero;"/>
            <path d="M8.758,-0.815C8.751,-0.805 8.737,-0.784 8.737,-0.815C8.737,-0.884 8.749,-0.989 8.749,-0.989C8.749,-1.001 8.739,-1.006 8.72,-1.006C8.655,-0.982 8.577,-0.963 8.419,-0.941C8.414,-0.927 8.419,-0.915 8.424,-0.901C8.545,-0.889 8.567,-0.878 8.572,-0.745C8.576,-0.623 8.575,-0.366 8.572,-0.248C8.567,-0.062 8.548,-0.055 8.412,-0.043C8.397,-0.029 8.397,-0.002 8.412,0.012C8.505,0.01 8.56,0 8.658,0C8.746,0 8.78,0.01 8.875,0.012C8.889,-0.002 8.889,-0.029 8.875,-0.043C8.758,-0.055 8.744,-0.062 8.739,-0.248C8.736,-0.36 8.733,-0.563 8.739,-0.676C8.741,-0.724 8.758,-0.75 8.777,-0.772C8.863,-0.855 8.99,-0.905 9.078,-0.905C9.124,-0.905 9.174,-0.877 9.2,-0.824C9.224,-0.779 9.221,-0.717 9.224,-0.647C9.229,-0.528 9.229,-0.368 9.224,-0.248C9.217,-0.062 9.202,-0.055 9.083,-0.043C9.071,-0.029 9.071,-0.002 9.083,0.012C9.179,0.01 9.222,0 9.312,0C9.405,0 9.448,0.01 9.546,0.012C9.558,-0.002 9.558,-0.029 9.546,-0.043C9.42,-0.055 9.401,-0.062 9.394,-0.248C9.389,-0.367 9.389,-0.497 9.394,-0.616C9.395,-0.652 9.396,-0.687 9.396,-0.72C9.396,-0.801 9.388,-0.871 9.351,-0.922C9.312,-0.972 9.236,-1.001 9.157,-1.001C9.045,-1.001 8.897,-0.97 8.758,-0.815Z" style="fill-rule:nonzero;"/>
            <path d="M10.38,-0.258C10.379,-0.215 10.375,-0.198 10.344,-0.17C10.261,-0.096 10.187,-0.06 10.129,-0.06C10.008,-0.06 9.864,-0.22 9.864,-0.504C9.864,-0.669 9.898,-0.781 9.931,-0.829C10.003,-0.936 10.11,-0.944 10.156,-0.944C10.237,-0.944 10.301,-0.915 10.347,-0.862C10.378,-0.827 10.385,-0.81 10.385,-0.738C10.385,-0.738 10.385,-0.377 10.38,-0.258ZM10.354,-0.115C10.366,-0.124 10.383,-0.129 10.383,-0.112C10.383,-0.057 10.406,0.024 10.406,0.024C10.426,0.031 10.43,0.029 10.449,0.024C10.5,-0.017 10.574,-0.053 10.712,-0.069C10.727,-0.084 10.727,-0.091 10.712,-0.105C10.567,-0.117 10.55,-0.16 10.545,-0.272C10.54,-0.392 10.54,-1.312 10.545,-1.431C10.551,-1.579 10.555,-1.646 10.555,-1.646C10.555,-1.663 10.547,-1.668 10.526,-1.668C10.469,-1.644 10.311,-1.615 10.22,-1.608C10.215,-1.589 10.22,-1.577 10.234,-1.562C10.354,-1.555 10.373,-1.567 10.38,-1.376C10.385,-1.257 10.385,-0.982 10.385,-0.982C10.385,-0.965 10.38,-0.96 10.363,-0.96C10.354,-0.96 10.256,-1.001 10.182,-1.001C10.031,-1.001 9.931,-0.948 9.84,-0.862C9.742,-0.764 9.683,-0.633 9.683,-0.463C9.683,-0.184 9.824,0.024 10.07,0.024C10.158,0.024 10.242,-0.024 10.354,-0.115Z" style="fill-rule:nonzero;"/>
            <path d="M11.465,-0.301C11.474,-0.189 11.479,-0.096 11.479,0C11.503,-0.005 11.525,-0.007 11.536,-0.007C11.553,-0.007 11.565,-0.007 11.582,-0.002C11.644,0.014 11.706,0.024 11.79,0.024C11.916,0.024 12.153,-0.041 12.153,-0.265C12.153,-0.42 12.041,-0.497 11.885,-0.557C11.749,-0.609 11.649,-0.655 11.649,-0.779C11.649,-0.872 11.725,-0.948 11.818,-0.948C11.902,-0.948 12.024,-0.917 12.053,-0.724C12.067,-0.712 12.088,-0.712 12.103,-0.726C12.11,-0.807 12.112,-0.882 12.115,-0.956C12.043,-0.968 11.938,-1.001 11.818,-1.001C11.637,-1.001 11.496,-0.904 11.496,-0.745C11.496,-0.578 11.585,-0.511 11.747,-0.442C11.934,-0.362 11.986,-0.311 11.986,-0.213C11.986,-0.1 11.869,-0.029 11.785,-0.029C11.697,-0.029 11.634,-0.067 11.611,-0.091C11.556,-0.143 11.525,-0.246 11.51,-0.303C11.496,-0.318 11.479,-0.315 11.465,-0.301Z" style="fill-rule:nonzero;"/>
            <path d="M12.948,-0.506L12.936,-0.227C12.935,-0.199 12.924,-0.184 12.905,-0.17C12.846,-0.122 12.764,-0.048 12.7,-0.048C12.585,-0.048 12.523,-0.148 12.523,-0.22C12.523,-0.309 12.582,-0.417 12.752,-0.459L12.948,-0.506ZM12.936,-0.11C12.951,-0.062 12.987,0.024 13.108,0.024C13.221,0.024 13.302,-0.067 13.302,-0.079C13.302,-0.096 13.278,-0.11 13.269,-0.11C13.254,-0.11 13.247,-0.072 13.199,-0.072C13.111,-0.072 13.099,-0.143 13.104,-0.275L13.116,-0.614C13.127,-0.934 12.958,-1.001 12.791,-1.001C12.604,-1.001 12.404,-0.882 12.404,-0.76C12.404,-0.705 12.442,-0.667 12.494,-0.667C12.561,-0.667 12.6,-0.726 12.6,-0.755C12.6,-0.772 12.597,-0.786 12.592,-0.796C12.59,-0.803 12.588,-0.817 12.588,-0.841C12.588,-0.913 12.686,-0.948 12.772,-0.948C12.848,-0.948 12.951,-0.886 12.951,-0.628C12.951,-0.612 12.946,-0.581 12.939,-0.578L12.724,-0.53C12.503,-0.481 12.349,-0.366 12.349,-0.21C12.349,-0.036 12.473,0.024 12.633,0.024C12.738,0.024 12.786,0.002 12.886,-0.074L12.932,-0.11L12.936,-0.11Z" style="fill-rule:nonzero;"/>
            <path d="M13.751,-0.815C13.744,-0.805 13.73,-0.784 13.73,-0.815C13.73,-0.884 13.742,-0.989 13.742,-0.989C13.742,-1.001 13.732,-1.006 13.713,-1.006C13.648,-0.982 13.57,-0.963 13.412,-0.941C13.407,-0.927 13.412,-0.915 13.417,-0.901C13.538,-0.889 13.56,-0.878 13.565,-0.745C13.569,-0.623 13.568,-0.366 13.565,-0.248C13.56,-0.062 13.541,-0.055 13.405,-0.043C13.39,-0.029 13.39,-0.002 13.405,0.012C13.498,0.01 13.553,0 13.651,0C13.739,0 13.773,0.01 13.868,0.012C13.882,-0.002 13.882,-0.029 13.868,-0.043C13.751,-0.055 13.737,-0.062 13.732,-0.248C13.729,-0.36 13.726,-0.563 13.732,-0.676C13.734,-0.724 13.751,-0.75 13.77,-0.772C13.856,-0.855 13.983,-0.905 14.071,-0.905C14.117,-0.905 14.167,-0.877 14.193,-0.824C14.217,-0.779 14.214,-0.717 14.217,-0.647C14.222,-0.528 14.222,-0.368 14.217,-0.248C14.21,-0.062 14.195,-0.055 14.076,-0.043C14.064,-0.029 14.064,-0.002 14.076,0.012C14.172,0.01 14.215,0 14.305,0C14.399,0 14.442,0.01 14.539,0.012C14.551,-0.002 14.551,-0.029 14.539,-0.043C14.413,-0.055 14.394,-0.062 14.387,-0.248C14.382,-0.367 14.382,-0.497 14.387,-0.616C14.388,-0.652 14.389,-0.687 14.389,-0.72C14.389,-0.801 14.381,-0.871 14.344,-0.922C14.305,-0.972 14.229,-1.001 14.15,-1.001C14.038,-1.001 13.89,-0.97 13.751,-0.815Z" style="fill-rule:nonzero;"/>
            <path d="M15.373,-0.258C15.372,-0.215 15.368,-0.198 15.337,-0.17C15.254,-0.096 15.18,-0.06 15.122,-0.06C15.001,-0.06 14.857,-0.22 14.857,-0.504C14.857,-0.669 14.891,-0.781 14.924,-0.829C14.996,-0.936 15.103,-0.944 15.149,-0.944C15.23,-0.944 15.294,-0.915 15.34,-0.862C15.371,-0.827 15.378,-0.81 15.378,-0.738C15.378,-0.738 15.378,-0.377 15.373,-0.258ZM15.347,-0.115C15.359,-0.124 15.376,-0.129 15.376,-0.112C15.376,-0.057 15.399,0.024 15.399,0.024C15.419,0.031 15.423,0.029 15.442,0.024C15.493,-0.017 15.567,-0.053 15.705,-0.069C15.72,-0.084 15.72,-0.091 15.705,-0.105C15.56,-0.117 15.543,-0.16 15.538,-0.272C15.533,-0.392 15.533,-1.312 15.538,-1.431C15.544,-1.579 15.548,-1.646 15.548,-1.646C15.548,-1.663 15.54,-1.668 15.519,-1.668C15.462,-1.644 15.304,-1.615 15.213,-1.608C15.208,-1.589 15.213,-1.577 15.227,-1.562C15.347,-1.555 15.366,-1.567 15.373,-1.376C15.378,-1.257 15.378,-0.982 15.378,-0.982C15.378,-0.965 15.373,-0.96 15.356,-0.96C15.347,-0.96 15.249,-1.001 15.175,-1.001C15.024,-1.001 14.924,-0.948 14.833,-0.862C14.735,-0.764 14.676,-0.633 14.676,-0.463C14.676,-0.184 14.817,0.024 15.063,0.024C15.151,0.024 15.235,-0.024 15.347,-0.115Z" style="fill-rule:nonzero;"/>
        </g>
    </g>
    <g transform="matrix(5.61853,0,0,3.89667,239.093,456.966)">
        <path d="M1.5,-1.5L0,-1.5L0,-3L3,-3L3,-1.5L7.5,-1.5L7.5,-4.5L1.5,-4.5L1.5,-6L0,-6L0,-9L1.5,-9L1.5,-10.5L9,-10.5L9,-9L10.5,-9L10.5,-7.5L7.5,-7.5L7.5,-9L3,-9L3,-6L9,-6L9,-4.5L10.5,-4.5L10.5,-1.5L9,-1.5L9,0L1.5,0L1.5,-1.5Z" style="fill-rule:nonzero;"/>
    </g>
</svg>
