<?xml version="1.0" encoding="UTF-8" standalone="no"?>
<!DOCTYPE svg PUBLIC "-//W3C//DTD SVG 1.1//EN" "http://www.w3.org/Graphics/SVG/1.1/DTD/svg11.dtd">
<svg width="100%" height="100%" viewBox="0 0 1280 640" version="1.1" xmlns="http://www.w3.org/2000/svg" xmlns:xlink="http://www.w3.org/1999/xlink" xml:space="preserve" xmlns:serif="http://www.serif.com/" style="fill-rule:evenodd;clip-rule:evenodd;">
    <g transform="matrix(5.37061,0,0,5.37061,-1511.24,-3847.85)">
        <path d="M307.114,727.721C307.095,727.72 307.076,727.72 307.057,727.72C305.661,727.72 304.512,729.172 304.511,730.937L304.511,757.037C303.128,760.134 302.414,763.438 302.406,766.774C302.417,770.614 303.364,774.406 305.181,777.884C304.072,778.221 302.946,778.671 301.898,779.152C299.28,780.354 297.143,781.715 297.143,781.715L297.704,782.606C297.704,782.606 299.794,781.28 302.336,780.114C303.415,779.619 304.572,779.163 305.673,778.842C306.069,779.526 306.498,780.195 306.958,780.846C305.622,781.187 304.228,781.736 302.948,782.322C300.33,783.524 298.193,784.883 298.193,784.883L298.754,785.774C298.754,785.774 300.844,784.451 303.386,783.284C304.657,782.701 306.04,782.159 307.307,781.845C307.43,781.814 307.544,781.797 307.665,781.771C308.192,782.455 308.755,783.116 309.351,783.752C308.944,783.808 308.532,783.882 308.109,783.987C306.743,784.326 305.31,784.889 304.001,785.49C301.383,786.692 299.246,788.05 299.246,788.05L299.807,788.941C299.807,788.941 301.897,787.617 304.439,786.451C305.71,785.868 307.093,785.326 308.36,785.012C309.07,784.836 309.733,784.747 310.321,784.74C310.846,785.239 311.391,785.72 311.958,786.181C310.528,789.019 309.781,792.127 309.772,795.277C309.772,802.239 313.378,808.768 319.394,812.699C317.54,814.363 316.765,816.507 317.317,818.445C318.225,821.606 322.429,823.391 326.823,822.481C326.977,822.45 327.13,822.415 327.282,822.376C329.063,821.929 330.675,821.073 331.875,819.94C333.076,821.074 334.689,821.929 336.47,822.376C336.623,822.415 336.776,822.45 336.93,822.482C341.323,823.391 345.526,821.607 346.435,818.447C346.991,816.502 346.209,814.349 344.342,812.683C346.604,811.214 348.561,809.356 350.113,807.205C351.918,808.052 353.678,809.475 355.471,810.91C359.911,814.464 365.811,815.44 370.329,812.687C374.847,809.934 377.198,804.33 377.14,797.41C377.14,797.402 377.14,797.395 377.14,797.387C377.14,795.071 375.24,793.164 372.93,793.164C372.897,793.164 372.864,793.165 372.831,793.166C370.523,793.219 368.667,795.167 368.719,797.482C368.76,802.502 367.15,804.743 365.956,805.471C364.762,806.199 363.196,806.289 360.724,804.31C359.082,802.996 356.745,800.929 353.537,799.482C353.833,798.098 353.982,796.689 353.983,795.277C353.976,792.129 353.231,789.023 351.804,786.185C352.362,785.722 352.9,785.24 353.416,784.74C354.009,784.751 354.677,784.835 355.394,785.012C356.661,785.326 358.044,785.868 359.315,786.451C361.857,787.618 363.947,788.941 363.947,788.941L364.51,788.05C364.51,788.05 362.37,786.691 359.753,785.49C358.444,784.889 357.014,784.326 355.647,783.987C355.236,783.885 354.833,783.812 354.436,783.756C355.031,783.12 355.592,782.46 356.118,781.777C356.229,781.801 356.334,781.817 356.447,781.844C357.714,782.158 359.096,782.7 360.368,783.283C362.91,784.45 365,785.773 365,785.773L365.563,784.882C365.563,784.882 363.423,783.523 360.806,782.321C359.521,781.731 358.12,781.179 356.776,780.839C357.237,780.188 357.667,779.519 358.063,778.835C359.17,779.157 360.334,779.615 361.42,780.113C363.962,781.28 366.052,782.605 366.052,782.605L366.615,781.714C366.615,781.714 364.475,780.353 361.858,779.151C360.809,778.67 359.684,778.22 358.575,777.883C360.392,774.405 361.34,770.613 361.352,766.773C361.348,763.428 360.634,760.113 359.247,757.007L359.247,730.937C359.246,729.172 358.097,727.72 356.701,727.72C356.681,727.72 356.662,727.721 356.642,727.721C356.216,727.733 355.799,727.881 355.429,728.15L337.896,740.951C335.917,740.579 333.901,740.39 331.879,740.388C329.864,740.398 327.856,740.593 325.885,740.969L308.326,728.15C307.957,727.881 307.54,727.734 307.113,727.722M307.668,734.054L313.649,746.046C311.351,747.667 309.336,749.585 307.669,751.738L307.669,734.054M356.089,734.054L356.089,751.778C354.42,749.619 352.401,747.695 350.098,746.069L356.089,734.059M316.729,763.618C317.771,763.598 318.836,763.715 319.889,763.975C324.094,765.02 327.28,768.178 327.664,771.972C327.688,772.205 327.623,772.438 327.481,772.624C325.126,775.708 320.716,776.964 316.505,775.925C312.3,774.88 309.112,771.722 308.728,767.928C308.704,767.695 308.77,767.462 308.911,767.276C310.678,764.962 313.6,763.678 316.728,763.619L316.729,763.618ZM347.029,763.618C350.156,763.677 353.079,764.961 354.846,767.275C354.988,767.461 355.053,767.694 355.029,767.927C354.644,771.721 351.456,774.879 347.252,775.924C343.041,776.963 338.631,775.708 336.276,772.623C336.135,772.437 336.069,772.204 336.093,771.971C336.478,768.177 339.664,765.019 343.868,763.974C344.921,763.714 345.985,763.597 347.028,763.617L347.029,763.618ZM320.825,765.727C320.825,765.727 320.824,765.727 320.824,765.727C319.381,765.727 318.193,767.157 318.193,768.894C318.193,768.894 318.193,768.894 318.193,768.894C318.193,770.631 319.381,772.06 320.824,772.06L320.825,772.06C322.268,772.06 323.456,770.631 323.456,768.894C323.456,768.894 323.456,768.894 323.456,768.894C323.456,767.157 322.268,765.727 320.825,765.727C320.825,765.727 320.825,765.727 320.825,765.727M342.932,765.727C342.932,765.727 342.932,765.727 342.932,765.727C341.488,765.727 340.3,767.157 340.3,768.894C340.3,768.894 340.3,768.894 340.3,768.894C340.3,770.631 341.488,772.06 342.932,772.06C342.932,772.06 342.932,772.06 342.932,772.06C344.374,772.059 345.561,770.63 345.561,768.894C345.561,767.158 344.375,765.729 342.932,765.727M331.879,778.392C333.612,778.392 335.037,779.345 335.037,780.503C335.037,781.661 333.612,782.614 331.879,782.614C331.879,782.614 331.879,782.614 331.879,782.614C330.147,782.614 328.721,781.661 328.721,780.503C328.721,780.503 328.721,780.503 328.721,780.503C328.721,779.345 330.147,778.392 331.879,778.392" style="fill-rule:nonzero;"/>
    </g>
    <g id="red_shield" transform="matrix(0.203186,0,0,0.145463,197.433,406.138)">
        <path d="M360.001,519.846L25,129.4L138.287,20.154L581.744,20.154L695,129.4L360.001,519.846Z" style="fill:white;fill-rule:nonzero;stroke:black;stroke-width:11px;"/>
    </g>
    <g transform="matrix(7.32018,0,0,9.48677,-3731.5,-1506.59)">
        <text x="578.02px" y="186.893px" style="font-family:'PublicPixel', 'Public Pixel', sans-serif;font-size:12px;">Supercat</text>
    </g>
    <g transform="matrix(22.575,0,0,22.575,-13096.3,-3857.04)">
        <text x="603.823px" y="186.893px" style="font-family:'LinLibertineDisplayO', 'Linux Libertine Display O';font-size:2.389px;">Super-resolution of CT scans</text>
        <text x="609.719px" y="189.282px" style="font-family:'LinLibertineDisplayO', 'Linux Libertine Display O';font-size:2.389px;">of rock and sand</text>
    </g>
    <g transform="matrix(5.61853,0,0,3.89667,-3008.53,-271.294)">
        <text x="578.02px" y="186.893px" style="font-family:'PublicPixel', 'Public Pixel', sans-serif;font-size:12px;">S</text>
    </g>
</svg>
